<mxfile host="app.diagrams.net" agent="Mozilla/5.0 (Macintosh; Intel Mac OS X 10_15_7) AppleWebKit/537.36 (KHTML, like Gecko) Chrome/140.0.0.0 Safari/537.36" version="28.2.0">
  <diagram name="第 1 页" id="S8M-yj6RzCNk1pn-L0EU">
    <mxGraphModel dx="1455" dy="938" grid="1" gridSize="10" guides="1" tooltips="1" connect="1" arrows="1" fold="1" page="1" pageScale="1" pageWidth="827" pageHeight="1169" math="0" shadow="0">
      <root>
        <mxCell id="0" />
        <mxCell id="1" parent="0" />
        <mxCell id="TVikcrwGHEjNupi89P4d-1" value="" style="whiteSpace=wrap;html=1;aspect=fixed;fillColor=#dae8fc;strokeColor=#6c8ebf;" vertex="1" parent="1">
          <mxGeometry x="200" y="170" width="130" height="130" as="geometry" />
        </mxCell>
        <mxCell id="TVikcrwGHEjNupi89P4d-2" value="" style="whiteSpace=wrap;html=1;aspect=fixed;fillColor=#dae8fc;strokeColor=#6c8ebf;" vertex="1" parent="1">
          <mxGeometry x="210" y="180" width="130" height="130" as="geometry" />
        </mxCell>
        <mxCell id="TVikcrwGHEjNupi89P4d-3" value="" style="whiteSpace=wrap;html=1;aspect=fixed;fillColor=#dae8fc;strokeColor=#6c8ebf;" vertex="1" parent="1">
          <mxGeometry x="220" y="190" width="130" height="130" as="geometry" />
        </mxCell>
        <mxCell id="TVikcrwGHEjNupi89P4d-6" value="" style="whiteSpace=wrap;html=1;aspect=fixed;fillColor=#d5e8d4;strokeColor=#82b366;" vertex="1" parent="1">
          <mxGeometry x="410" y="180" width="100" height="100" as="geometry" />
        </mxCell>
        <mxCell id="TVikcrwGHEjNupi89P4d-7" value="" style="whiteSpace=wrap;html=1;aspect=fixed;fillColor=#d5e8d4;strokeColor=#82b366;" vertex="1" parent="1">
          <mxGeometry x="420" y="190" width="100" height="100" as="geometry" />
        </mxCell>
        <mxCell id="TVikcrwGHEjNupi89P4d-8" value="" style="whiteSpace=wrap;html=1;aspect=fixed;fillColor=#d5e8d4;strokeColor=#82b366;" vertex="1" parent="1">
          <mxGeometry x="430" y="205" width="100" height="100" as="geometry" />
        </mxCell>
        <mxCell id="TVikcrwGHEjNupi89P4d-9" value="" style="whiteSpace=wrap;html=1;aspect=fixed;fillColor=#fff2cc;strokeColor=#d6b656;" vertex="1" parent="1">
          <mxGeometry x="590" y="207.5" width="50" height="50" as="geometry" />
        </mxCell>
        <mxCell id="TVikcrwGHEjNupi89P4d-10" value="" style="whiteSpace=wrap;html=1;aspect=fixed;fillColor=#d5e8d4;strokeColor=#82b366;" vertex="1" parent="1">
          <mxGeometry x="440" y="215" width="100" height="100" as="geometry" />
        </mxCell>
        <mxCell id="TVikcrwGHEjNupi89P4d-11" value="" style="whiteSpace=wrap;html=1;aspect=fixed;fillColor=#d5e8d4;strokeColor=#82b366;" vertex="1" parent="1">
          <mxGeometry x="450" y="225" width="100" height="100" as="geometry" />
        </mxCell>
        <mxCell id="TVikcrwGHEjNupi89P4d-12" value="" style="whiteSpace=wrap;html=1;aspect=fixed;fillColor=#fff2cc;strokeColor=#d6b656;" vertex="1" parent="1">
          <mxGeometry x="600" y="212.5" width="50" height="50" as="geometry" />
        </mxCell>
        <mxCell id="TVikcrwGHEjNupi89P4d-13" value="" style="whiteSpace=wrap;html=1;aspect=fixed;fillColor=#fff2cc;strokeColor=#d6b656;" vertex="1" parent="1">
          <mxGeometry x="610" y="217.5" width="50" height="50" as="geometry" />
        </mxCell>
        <mxCell id="TVikcrwGHEjNupi89P4d-14" value="" style="whiteSpace=wrap;html=1;aspect=fixed;fillColor=#fff2cc;strokeColor=#d6b656;" vertex="1" parent="1">
          <mxGeometry x="620" y="222.5" width="50" height="50" as="geometry" />
        </mxCell>
        <mxCell id="TVikcrwGHEjNupi89P4d-15" value="" style="whiteSpace=wrap;html=1;aspect=fixed;fillColor=#fff2cc;strokeColor=#d6b656;" vertex="1" parent="1">
          <mxGeometry x="630" y="232.5" width="50" height="50" as="geometry" />
        </mxCell>
        <mxCell id="TVikcrwGHEjNupi89P4d-19" style="edgeStyle=orthogonalEdgeStyle;rounded=0;orthogonalLoop=1;jettySize=auto;html=1;exitX=1;exitY=0.5;exitDx=0;exitDy=0;entryX=0;entryY=0.5;entryDx=0;entryDy=0;" edge="1" parent="1" source="TVikcrwGHEjNupi89P4d-17" target="TVikcrwGHEjNupi89P4d-1">
          <mxGeometry relative="1" as="geometry" />
        </mxCell>
        <mxCell id="TVikcrwGHEjNupi89P4d-17" value="&lt;font style=&quot;font-size: 20px;&quot;&gt;input&lt;/font&gt;" style="rounded=1;whiteSpace=wrap;html=1;fillColor=#f5f5f5;fontColor=#333333;strokeColor=#666666;" vertex="1" parent="1">
          <mxGeometry x="20" y="205" width="120" height="60" as="geometry" />
        </mxCell>
        <mxCell id="TVikcrwGHEjNupi89P4d-32" style="edgeStyle=orthogonalEdgeStyle;rounded=0;orthogonalLoop=1;jettySize=auto;html=1;exitX=0.469;exitY=-0.099;exitDx=0;exitDy=0;entryX=0;entryY=0.5;entryDx=0;entryDy=0;exitPerimeter=0;" edge="1" parent="1" source="TVikcrwGHEjNupi89P4d-18" target="TVikcrwGHEjNupi89P4d-30">
          <mxGeometry relative="1" as="geometry" />
        </mxCell>
        <mxCell id="TVikcrwGHEjNupi89P4d-18" value="" style="rounded=0;whiteSpace=wrap;html=1;rotation=45;fillColor=#e1d5e7;strokeColor=#9673a6;" vertex="1" parent="1">
          <mxGeometry x="674" y="222.5" width="153.18" height="10" as="geometry" />
        </mxCell>
        <mxCell id="TVikcrwGHEjNupi89P4d-20" value="" style="whiteSpace=wrap;html=1;aspect=fixed;fillColor=none;dashed=1;" vertex="1" parent="1">
          <mxGeometry x="255" y="235" width="60" height="60" as="geometry" />
        </mxCell>
        <mxCell id="TVikcrwGHEjNupi89P4d-21" value="" style="endArrow=none;dashed=1;html=1;dashPattern=1 3;strokeWidth=2;rounded=0;exitX=0.5;exitY=0;exitDx=0;exitDy=0;strokeColor=#666666;" edge="1" parent="1" source="TVikcrwGHEjNupi89P4d-20" target="TVikcrwGHEjNupi89P4d-11">
          <mxGeometry width="50" height="50" relative="1" as="geometry">
            <mxPoint x="270" y="170" as="sourcePoint" />
            <mxPoint x="320" y="120" as="targetPoint" />
          </mxGeometry>
        </mxCell>
        <mxCell id="TVikcrwGHEjNupi89P4d-23" value="" style="endArrow=none;dashed=1;html=1;dashPattern=1 3;strokeWidth=2;rounded=0;exitX=0.5;exitY=1;exitDx=0;exitDy=0;entryX=0.012;entryY=0.664;entryDx=0;entryDy=0;strokeColor=#666666;entryPerimeter=0;" edge="1" parent="1" source="TVikcrwGHEjNupi89P4d-20" target="TVikcrwGHEjNupi89P4d-11">
          <mxGeometry width="50" height="50" relative="1" as="geometry">
            <mxPoint x="390" y="250" as="sourcePoint" />
            <mxPoint x="545" y="280" as="targetPoint" />
          </mxGeometry>
        </mxCell>
        <mxCell id="TVikcrwGHEjNupi89P4d-24" value="" style="whiteSpace=wrap;html=1;aspect=fixed;fillColor=none;dashed=1;" vertex="1" parent="1">
          <mxGeometry x="490" y="270" width="30" height="30" as="geometry" />
        </mxCell>
        <mxCell id="TVikcrwGHEjNupi89P4d-25" value="" style="endArrow=none;dashed=1;html=1;dashPattern=1 3;strokeWidth=2;rounded=0;exitX=0.5;exitY=0;exitDx=0;exitDy=0;strokeColor=#666666;" edge="1" parent="1" source="TVikcrwGHEjNupi89P4d-24" target="TVikcrwGHEjNupi89P4d-15">
          <mxGeometry width="50" height="50" relative="1" as="geometry">
            <mxPoint x="530" y="314" as="sourcePoint" />
            <mxPoint x="696" y="310" as="targetPoint" />
          </mxGeometry>
        </mxCell>
        <mxCell id="TVikcrwGHEjNupi89P4d-26" value="" style="endArrow=none;dashed=1;html=1;dashPattern=1 3;strokeWidth=2;rounded=0;exitX=0.5;exitY=1;exitDx=0;exitDy=0;strokeColor=#666666;entryX=0;entryY=0.75;entryDx=0;entryDy=0;" edge="1" parent="1" source="TVikcrwGHEjNupi89P4d-24" target="TVikcrwGHEjNupi89P4d-15">
          <mxGeometry width="50" height="50" relative="1" as="geometry">
            <mxPoint x="590" y="270" as="sourcePoint" />
            <mxPoint x="715" y="260" as="targetPoint" />
          </mxGeometry>
        </mxCell>
        <mxCell id="TVikcrwGHEjNupi89P4d-27" value="" style="endArrow=none;dashed=1;html=1;dashPattern=1 3;strokeWidth=2;rounded=0;exitX=0.5;exitY=0;exitDx=0;exitDy=0;strokeColor=#666666;entryX=0;entryY=0.5;entryDx=0;entryDy=0;" edge="1" parent="1" source="TVikcrwGHEjNupi89P4d-9" target="TVikcrwGHEjNupi89P4d-18">
          <mxGeometry width="50" height="50" relative="1" as="geometry">
            <mxPoint x="570" y="270" as="sourcePoint" />
            <mxPoint x="695" y="190" as="targetPoint" />
          </mxGeometry>
        </mxCell>
        <mxCell id="TVikcrwGHEjNupi89P4d-28" value="" style="endArrow=none;dashed=1;html=1;dashPattern=1 3;strokeWidth=2;rounded=0;exitX=0.5;exitY=1;exitDx=0;exitDy=0;strokeColor=#666666;entryX=1;entryY=1;entryDx=0;entryDy=0;" edge="1" parent="1" source="TVikcrwGHEjNupi89P4d-15" target="TVikcrwGHEjNupi89P4d-18">
          <mxGeometry width="50" height="50" relative="1" as="geometry">
            <mxPoint x="660" y="360" as="sourcePoint" />
            <mxPoint x="741" y="325" as="targetPoint" />
          </mxGeometry>
        </mxCell>
        <mxCell id="TVikcrwGHEjNupi89P4d-30" value="&lt;font style=&quot;font-size: 20px;&quot;&gt;output&lt;/font&gt;" style="rounded=1;whiteSpace=wrap;html=1;fillColor=#f5f5f5;fontColor=#333333;strokeColor=#666666;" vertex="1" parent="1">
          <mxGeometry x="840" y="190" width="120" height="60" as="geometry" />
        </mxCell>
      </root>
    </mxGraphModel>
  </diagram>
</mxfile>
